<?xml version="1.0" encoding="UTF-8"?>
<svg xmlns="http://www.w3.org/2000/svg" viewBox="0 0 800 620">
  <!-- 배경 그라데이션 -->
  <defs>
    <linearGradient id="bg-gradient" x1="0%" y1="0%" x2="100%" y2="100%">
      <stop offset="0%" stop-color="#EFF6FF" />
      <stop offset="100%" stop-color="#DBEAFE" />
    </linearGradient>
    
    <!-- 그림자 효과 -->
    <filter id="shadow" x="-20%" y="-20%" width="140%" height="140%">
      <feDropShadow dx="0" dy="4" stdDeviation="8" flood-color="#1E40AF" flood-opacity="0.15"/>
    </filter>
    
    <!-- 아이콘 그라데이션 -->
    <linearGradient id="blue-gradient" x1="0%" y1="0%" x2="100%" y2="100%">
      <stop offset="0%" stop-color="#2563EB" />
      <stop offset="100%" stop-color="#1E40AF" />
    </linearGradient>
    
    <linearGradient id="green-gradient" x1="0%" y1="0%" x2="100%" y2="100%">
      <stop offset="0%" stop-color="#059669" />
      <stop offset="100%" stop-color="#047857" />
    </linearGradient>
    
    <linearGradient id="orange-gradient" x1="0%" y1="0%" x2="100%" y2="100%">
      <stop offset="0%" stop-color="#FB923C" />
      <stop offset="100%" stop-color="#F97316" />
    </linearGradient>
    
    <linearGradient id="purple-gradient" x1="0%" y1="0%" x2="100%" y2="100%">
      <stop offset="0%" stop-color="#8B5CF6" />
      <stop offset="100%" stop-color="#7C3AED" />
    </linearGradient>
    
    <linearGradient id="cyan-gradient" x1="0%" y1="0%" x2="100%" y2="100%">
      <stop offset="0%" stop-color="#22D3EE" />
      <stop offset="100%" stop-color="#0891B2" />
    </linearGradient>
    
    <linearGradient id="red-gradient" x1="0%" y1="0%" x2="100%" y2="100%">
      <stop offset="0%" stop-color="#F87171" />
      <stop offset="100%" stop-color="#DC2626" />
    </linearGradient>
    
    <!-- 디지털 파티클 효과 -->
    <pattern id="digital-pattern" x="0" y="0" width="20" height="20" patternUnits="userSpaceOnUse">
      <circle cx="2" cy="2" r="1" fill="#1E40AF" opacity="0.3" />
      <circle cx="10" cy="10" r="1" fill="#1E40AF" opacity="0.3" />
      <circle cx="18" cy="18" r="1" fill="#1E40AF" opacity="0.3" />
    </pattern>
  </defs>
  
  <!-- 배경 -->
  <rect width="800" height="620" fill="url(#bg-gradient)" rx="20" ry="20" />
  <rect width="800" height="620" fill="url(#digital-pattern)" opacity="0.5" rx="20" ry="20" />
  
  <!-- 메인 다이어그램 -->
  <g transform="translate(0, -10)">
  <g transform="translate(400, 300)">
    <!-- 외부 원 -->
    <circle cx="0" cy="0" r="240" fill="none" stroke="#1E40AF" stroke-width="2" stroke-dasharray="3,3" opacity="0.3" />
    <circle cx="0" cy="0" r="220" fill="none" stroke="#1E40AF" stroke-width="2" stroke-dasharray="6,6" opacity="0.5" />
    
    <!-- 디지털 흐름 효과 -->
    <path d="M-220,0 A220,220 0 0,1 220,0" fill="none" stroke="#2563EB" stroke-width="3" stroke-dasharray="3,15" opacity="0.7">
      <animateTransform attributeName="transform" attributeType="XML" type="rotate" from="0" to="360" dur="30s" repeatCount="indefinite" />
    </path>
    
    <path d="M-220,0 A220,220 0 0,1 220,0" fill="none" stroke="#2563EB" stroke-width="3" stroke-dasharray="8,20" opacity="0.4">
      <animateTransform attributeName="transform" attributeType="XML" type="rotate" from="180" to="540" dur="40s" repeatCount="indefinite" />
    </path>
    
    <!-- 내부 연결선 -->
    <circle cx="0" cy="0" r="115" fill="none" stroke="#1E40AF" stroke-width="1.5" stroke-dasharray="2,2" opacity="0.5" />
  </g>
  
  <!-- 생애주기 단계 아이콘 -->
  <!-- 결혼 -->
  <g transform="translate(400, 80)">
    <circle cx="0" cy="0" r="45" fill="url(#blue-gradient)" filter="url(#shadow)" />
    <g transform="scale(0.9)">
      <path d="M-15,10 Q-5,-15 0,-5 T15,10" fill="none" stroke="white" stroke-width="3.5" stroke-linecap="round" />
      <path d="M-15,15 L15,15" fill="none" stroke="white" stroke-width="3.5" stroke-linecap="round" />
      <path d="M-5,-5 L5,-5" fill="none" stroke="white" stroke-width="3.5" stroke-linecap="round" />
    </g>
    <text x="0" y="70" text-anchor="middle" font-family="Arial" font-size="16" fill="#1E40AF" font-weight="bold">결혼</text>
  </g>
  
  <!-- 임신 -->
  <g transform="translate(620, 180)">
    <circle cx="0" cy="0" r="45" fill="url(#green-gradient)" filter="url(#shadow)" />
    <g transform="scale(0.9)">
      <ellipse cx="0" cy="0" rx="15" ry="22" fill="none" stroke="white" stroke-width="3.5" />
      <circle cx="0" cy="-7" r="5" fill="white" />
    </g>
    <text x="0" y="70" text-anchor="middle" font-family="Arial" font-size="16" fill="#047857" font-weight="bold">임신</text>
  </g>
  
  <!-- 출산 -->
  <g transform="translate(620, 420)">
    <circle cx="0" cy="0" r="45" fill="url(#orange-gradient)" filter="url(#shadow)" />
    <g transform="scale(0.9)">
      <circle cx="-8" cy="-8" r="8" fill="white" />
      <path d="M-20,10 Q0,30 20,10" fill="none" stroke="white" stroke-width="3.5" stroke-linecap="round" />
      <path d="M-5,-25 L-5,-15 M5,-25 L5,-15" fill="none" stroke="white" stroke-width="2" stroke-linecap="round" />
    </g>
    <text x="0" y="70" text-anchor="middle" font-family="Arial" font-size="16" fill="#F97316" font-weight="bold">출산</text>
  </g>
  
  <!-- 육아 -->
  <g transform="translate(400, 520)">
    <circle cx="0" cy="0" r="45" fill="url(#purple-gradient)" filter="url(#shadow)" />
    <g transform="scale(0.9)">
      <circle cx="-12" cy="-5" r="6" fill="white" />
      <circle cx="12" cy="-5" r="6" fill="white" />
      <path d="M-12,10 Q0,25 12,10" fill="none" stroke="white" stroke-width="3.5" stroke-linecap="round" />
      <path d="M0,-20 L0,0" fill="none" stroke="white" stroke-width="3.5" stroke-linecap="round" />
      <path d="M-15,0 L15,0" fill="none" stroke="white" stroke-width="3.5" stroke-linecap="round" />
    </g>
    <text x="0" y="-50" text-anchor="middle" font-family="Arial" font-size="16" fill="#7C3AED" font-weight="bold">육아</text>
  </g>
  
  <!-- 교육 -->
  <g transform="translate(180, 420)">
    <circle cx="0" cy="0" r="45" fill="url(#cyan-gradient)" filter="url(#shadow)" />
    <g transform="scale(0.9)">
      <path d="M-20,-15 L20,-15 L20,15 L-20,15 Z" fill="none" stroke="white" stroke-width="3.5" />
      <path d="M-8,-15 L-8,-25 L8,-25 L8,-15" fill="none" stroke="white" stroke-width="3.5" />
      <line x1="-12" y1="0" x2="12" y2="0" stroke="white" stroke-width="3.5" />
      <line x1="-12" y1="8" x2="12" y2="8" stroke="white" stroke-width="3.5" />
    </g>
    <text x="0" y="70" text-anchor="middle" font-family="Arial" font-size="16" fill="#0891B2" font-weight="bold">교육</text>
  </g>
  
  <!-- 일자리 -->
  <g transform="translate(180, 180)">
    <circle cx="0" cy="0" r="45" fill="url(#red-gradient)" filter="url(#shadow)" />
    <g transform="scale(0.9)">
      <rect x="-20" y="-15" width="40" height="30" rx="3" fill="none" stroke="white" stroke-width="3.5" />
      <path d="M-10,-15 L-10,-23 L10,-23 L10,-15" fill="none" stroke="white" stroke-width="3.5" />
      <path d="M-10,0 L5,0 M-10,7 L15,7" fill="none" stroke="white" stroke-width="2.5" />
    </g>
    <text x="0" y="70" text-anchor="middle" font-family="Arial" font-size="16" fill="#DC2626" font-weight="bold">일자리</text>
  </g>
  
  <!-- 중앙 허브 - 디지털 플랫폼 -->
  <g transform="translate(400, 300)">
    <!-- 내부 허브 -->
    <circle cx="0" cy="0" r="70" fill="#ffffff" filter="url(#shadow)" />
    <circle cx="0" cy="0" r="68" fill="url(#bg-gradient)" />
    
    <!-- 디지털 아이콘 -->
    <g>
      <!--path d="M-35,-20 H35 C45,-20 45,20 35,20 H-35 C-45,20 -45,-20 -35,-20 Z" fill="url(#blue-gradient)" /-->
      <text x="0" y="0" text-anchor="middle" font-family="Arial" font-size="22" fill="blue" font-weight="bold" dominant-baseline="middle">디지털 기반</text>
      
      <!-- 데이터 흐름 효과 -->
      <g opacity="0.8">
        <circle cx="-25" cy="-30" r="3" fill="white">
          <animate attributeName="opacity" values="0;1;0" dur="3s" repeatCount="indefinite" begin="0s" />
        </circle>
        <circle cx="15" cy="-30" r="2" fill="white">
          <animate attributeName="opacity" values="0;1;0" dur="2.5s" repeatCount="indefinite" begin="0.5s" />
        </circle>
        <circle cx="35" cy="-10" r="2.5" fill="white">
          <animate attributeName="opacity" values="0;1;0" dur="3.2s" repeatCount="indefinite" begin="1s" />
        </circle>
        <circle cx="25" cy="30" r="3" fill="white">
          <animate attributeName="opacity" values="0;1;0" dur="2.8s" repeatCount="indefinite" begin="1.5s" />
        </circle>
        <circle cx="-15" cy="30" r="2" fill="white">
          <animate attributeName="opacity" values="0;1;0" dur="3s" repeatCount="indefinite" begin="2s" />
        </circle>
        <circle cx="-35" cy="0" r="2.5" fill="white">
          <animate attributeName="opacity" values="0;1;0" dur="2.7s" repeatCount="indefinite" begin="1.3s" />
        </circle>
      </g>
    </g>
  </g>
  
  <!-- 연결선 애니메이션 -->
  <!-- 결혼 -> 중심 -->
  <path d="M400,125 C400,175 400,225 400,230" fill="none" stroke="url(#blue-gradient)" stroke-width="3" stroke-linecap="round">
    <animate attributeName="stroke-dasharray" values="0,150;150,0" dur="2s" repeatCount="indefinite" />
  </path>
  
  <!-- 임신 -> 중심 -->
  <path d="M575,180 C525,215 475,250 455,270" fill="none" stroke="url(#green-gradient)" stroke-width="3" stroke-linecap="round">
    <animate attributeName="stroke-dasharray" values="0,150;150,0" dur="2s" repeatCount="indefinite" begin="0.3s" />
  </path>
  
  <!-- 출산 -> 중심 -->
  <path d="M575,420 C525,385 475,350 455,330" fill="none" stroke="url(#orange-gradient)" stroke-width="3" stroke-linecap="round">
    <animate attributeName="stroke-dasharray" values="0,150;150,0" dur="2s" repeatCount="indefinite" begin="0.6s" />
  </path>
  
  <!-- 육아 -> 중심 -->
  <path d="M400,475 C400,425 400,375 400,370" fill="none" stroke="url(#purple-gradient)" stroke-width="3" stroke-linecap="round">
    <animate attributeName="stroke-dasharray" values="0,150;150,0" dur="2s" repeatCount="indefinite" begin="0.9s" />
  </path>
  
  <!-- 교육 -> 중심 -->
  <path d="M225,420 C275,385 325,350 345,330" fill="none" stroke="url(#cyan-gradient)" stroke-width="3" stroke-linecap="round">
    <animate attributeName="stroke-dasharray" values="0,150;150,0" dur="2s" repeatCount="indefinite" begin="1.2s" />
  </path>
  
  <!-- 일자리 -> 중심 -->
  <path d="M225,180 C275,215 325,250 345,270" fill="none" stroke="url(#red-gradient)" stroke-width="3" stroke-linecap="round">
    <animate attributeName="stroke-dasharray" values="0,150;150,0" dur="2s" repeatCount="indefinite" begin="1.5s" />
  </path>
  
  <!-- 디지털 디바이스 아이콘 -->
  <g transform="translate(550, 120)">
    <!-- 스마트폰 -->
    <rect x="-15" y="-30" width="30" height="60" rx="5" fill="white" stroke="#1E40AF" stroke-width="2" />
    <rect x="-12" y="-27" width="24" height="45" rx="2" fill="#E0F2FE" />
    <circle cx="0" cy="25" r="3" fill="#1E40AF" />
    <line x1="-8" y1="-20" x2="8" y2="-20" stroke="#1E40AF" stroke-width="2" stroke-linecap="round" />
    <line x1="-8" y1="-14" x2="5" y2="-14" stroke="#1E40AF" stroke-width="2" stroke-linecap="round" />
    
    <!-- 태블릿 -->
    <g transform="translate(35, 15) rotate(15)">
      <rect x="-25" y="-35" width="50" height="70" rx="5" fill="white" stroke="#1E40AF" stroke-width="2" />
      <rect x="-22" y="-32" width="44" height="60" rx="2" fill="#E0F2FE" />
      <circle cx="0" cy="32" r="3" fill="#1E40AF" />
      <line x1="-15" y1="-25" x2="15" y2="-25" stroke="#1E40AF" stroke-width="2" stroke-linecap="round" />
      <line x1="-15" y1="-18" x2="10" y2="-18" stroke="#1E40AF" stroke-width="2" stroke-linecap="round" />
      <line x1="-15" y1="-11" x2="15" y2="-11" stroke="#1E40AF" stroke-width="2" stroke-linecap="round" />
    </g>
    
    <!-- 디지털 신호 애니메이션 -->
    <g transform="translate(10, -15)">
      <path d="M0,0 C10,-10 20,-10 30,0" fill="none" stroke="#1E40AF" stroke-width="1.5" opacity="0.5">
        <animate attributeName="opacity" values="0;0.8;0" dur="2s" repeatCount="indefinite" />
      </path>
      <path d="M0,5 C10,-5 20,-5 30,5" fill="none" stroke="#1E40AF" stroke-width="1.5" opacity="0.5">
        <animate attributeName="opacity" values="0;0.8;0" dur="2s" repeatCount="indefinite" begin="0.5s" />
      </path>
      <path d="M0,10 C10,0 20,0 30,10" fill="none" stroke="#1E40AF" stroke-width="1.5" opacity="0.5">
        <animate attributeName="opacity" values="0;0.8;0" dur="2s" repeatCount="indefinite" begin="1s" />
      </path>
    </g>
  </g>
  
  <!-- 가족 아이콘 -->
  <g transform="translate(270, 470)">
    <!-- 부모와 자녀 -->
    <circle cx="-25" cy="-20" r="18" fill="url(#orange-gradient)" filter="url(#shadow)" />
    <circle cx="25" cy="-20" r="18" fill="url(#blue-gradient)" filter="url(#shadow)" />
    <circle cx="0" cy="20" r="15" fill="url(#purple-gradient)" filter="url(#shadow)" />
    
    <!-- 따뜻한 집 아이콘 -->
    <g transform="translate(-60, -15) scale(0.8)">
      <path d="M-20,20 L-20,0 L0,-20 L20,0 L20,20 Z" fill="white" stroke="#1E40AF" stroke-width="2.5" />
      <rect x="-8" y="5" width="16" height="15" rx="1" fill="#1E40AF" />
      <rect x="-15" y="-5" width="8" height="8" fill="#2563EB" />
      <rect x="7" y="-5" width="8" height="8" fill="#2563EB" />
      <path d="M0,-20 L0,-25" stroke="#1E40AF" stroke-width="2.5" />
    </g>
    
    <!-- 연결 하트 -->
    <path d="M-10,-10 C-20,-30 -40,-30 -40,-10 C-40,0 -30,5 -10,15 C10,5 20,0 20,-10 C20,-30 0,-30 10,-10" fill="#F87171" opacity="0.7" transform="scale(0.6) translate(0, 15)">
      <animate attributeName="fill-opacity" values="0.5;0.9;0.5" dur="3s" repeatCount="indefinite" />
    </path>
  </g></g>
  
  <!-- 설명 텍스트 -->
  <g transform="translate(400, 590)">
    <rect x="-300" y="-25" width="600" height="50" rx="25" fill="url(#blue-gradient)" filter="url(#shadow)" />
    <text x="0" y="5" text-anchor="middle" font-family="Arial" font-size="20" fill="white" font-weight="bold" dominant-baseline="middle">디지털 기반 통합형 생애주기 지원 시스템</text>
  </g>
</svg>
